# xmcd
#
# Track frame offsets: 
#        150
#        19285
#        40886
#        77385
#        99653
#        121085
#        148441
#        166420
#        193323
#        212952
#        243388
#
# Disc length: 3528 seconds
#
# Revision: 1
# Processed by: cddbd v1.5.2PL0 Copyright (c) Steve Scherf et al.
# Submitted via: ExactAudioCopy v0.99pb3
#
DISCID=9d0dc60b
DTITLE=Stefano Di Battista - Trouble Shootin'
DYEAR=2007
DGENRE=Jazz
TTITLE0=I Will Love You
TTITLE1=Midnight Blue
TTITLE2=The Serpent's Charm
TTITLE3=Under Her Spell
TTITLE4=The Jody Grind
TTITLE5=Echoes of Brazil
TTITLE6=Alexanderplatz Blues
TTITLE7=Essaouira
TTITLE8=Weather Or Not
TTITLE9=This Here
TTITLE10=Trouble Shootin'
EXTD=YEAR: 2007\nStefano Di Battista - sax. - Baptiste Trotignon - Ham
EXTD=mond org. B3 - Fabrizio Bosso - tr. - Eric Harland - dr. - Russell M
EXTD=alone - guit.;
EXTT0=
EXTT1=
EXTT2=
EXTT3=
EXTT4=
EXTT5=
EXTT6=
EXTT7=
EXTT8=
EXTT9=
EXTT10=
PLAYORDER=
